<svg xmlns="http://www.w3.org/2000/svg" viewBox="0 0 458.44 458.44"><g fill="#fff"><path d="M194.02 206.64a76.7 76.7 0 0012.2-42.88c-.7-42.28-35.88-75.87-78.16-75.87H10A10.01 10.01 0 000 97.9v259.6c0 5.52 4.48 10 10.01 10h131.86c48.94 0 89.48-39.22 89.68-88.16a88.49 88.49 0 00-37.53-72.7zM51.79 139.68h77.28c13.99 0 25.38 11.38 25.38 25.38 0 14-11.39 25.38-25.38 25.38H51.78v-50.76zm91.23 176.04H51.8v-73.5h91.23a36.79 36.79 0 0136.75 36.75 36.79 36.79 0 01-36.75 36.75zM458.44 260.93c0-60.45-47.64-109.62-106.2-109.62s-106.2 49.17-106.2 109.62 47.64 109.63 106.2 109.63c35.53 0 68.55-18.22 88.32-48.73 2.47-3.8 4.7-7.78 6.7-11.88a4.5 4.5 0 00-4.06-6.44l-52.2-.13a4.4 4.4 0 00-3.08 1.27c-9.86 9.59-21.95 14.12-35.68 14.12-25.95 0-47.7-19.4-53.1-45.28h148.91a10.4 10.4 0 0010.4-10.39v-2.17zm-106.2-57.84c19 0 35.75 10.42 45.49 26.15h-90.98c9.74-15.73 26.49-26.15 45.49-26.15zM396.37 138.44h-94.2a7.96 7.96 0 01-7.96-7.96v-23.63c0-4.4 3.57-7.96 7.96-7.96h94.2c4.4 0 7.96 3.57 7.96 7.96v23.63c0 4.4-3.56 7.96-7.96 7.96z"/></g></svg>