<svg xmlns="http://www.w3.org/2000/svg" viewBox="0 0 512 512"><path d="M437.11 9.29c-4.57-5.9-11.86-9.29-20-9.29H99.19A29.28 29.28 0 0070 29.3v467.16a28 28 0 001.4 8.84 9.75 9.75 0 0016.8 3.13l151.86-185.17h117.6c4.44 0 8.33-3 9.44-7.3l30.75-118.4a9.73 9.73 0 00-9.44-12.2H243.64c-13.45 0-24.38-10.95-24.38-24.4s10.93-24.39 24.39-24.39h162.5c4.43 0 8.32-3 9.43-7.3l25.5-98.17c2.06-7.93.61-15.89-3.97-21.81z" fill="#314e55"/><path d="M422.2 26.2l-23.6 90.86H243.64c-24.2 0-43.9 19.7-43.9 43.9s19.7 43.9 43.9 43.9H375.8l-25.69 98.89H235.44a9.77 9.77 0 00-7.54 3.57L89.5 476.07V29.29c0-5.3 4.43-9.78 9.68-9.78h317.92c2.1 0 3.71.61 4.57 1.71.87 1.13 1.06 2.9.51 4.99z" fill="#fff"/></svg>