<svg xmlns="http://www.w3.org/2000/svg" viewBox="0 0 512 512"><path d="M437.02 74.98C388.67 26.63 324.38 0 256 0S123.33 26.63 74.98 74.98C26.63 123.33 0 187.62 0 256a256.06 256.06 0 00153.82 234.77 9.99 9.99 0 0014-9.07 319.05 319.05 0 018.04-68.16L201.4 306.1a53.38 53.38 0 00.68-21.53l-3.4-19.65c-.3-1.7-.44-3.44-.44-5.16v-5.13a82.88 82.88 0 0113.72-45.75 25.08 25.08 0 0121-11.3h.68a24.34 24.34 0 0123.58 18.54l.28 1.1a49.2 49.2 0 01-.08 24.1l-18.57 72.28a44.67 44.67 0 007.86 38.51 43.87 43.87 0 0034.5 17.35h.64c52.95 0 91.39-54.06 91.39-128.55 0-32.7-11.81-62.2-33.25-83.07-21.36-20.8-51.5-32.25-84.9-32.25-37.37 0-69.63 13.09-93.3 37.85-21.35 22.35-33.6 53.15-33.6 84.5 0 19.52 6.12 41.57 15.97 57.55a8.14 8.14 0 01.81 6.97l-5.66 16.22a2.66 2.66 0 01-1.87 1.73c-.62.16-1.54.2-2.4-.55-19.8-17.28-34.18-52.14-34.18-82.9 0-72.6 47.42-128.71 120.8-142.94a10 10 0 10-3.81-19.63c-42.31 8.2-77.6 28.82-102.03 59.6-22.54 28.41-34.96 64.98-34.96 102.98 0 36.6 16.87 76.88 41.03 97.96a22.7 22.7 0 0036.31-9.66l5.66-16.23c2.79-7.99 1.81-16.75-2.67-24.04-7.9-12.8-13-31.28-13-47.06 0-49.62 37.47-102.35 106.9-102.35 57.79 0 98.14 39.2 98.14 95.32 0 31.5-7.68 59.85-21.63 79.8-12.95 18.54-30.62 28.75-49.75 28.75h-.42a24 24 0 01-18.84-9.51 24.79 24.79 0 01-4.37-21.37l18.57-72.28a69.26 69.26 0 00.11-33.93l-.28-1.11a44.3 44.3 0 00-42.98-33.69h-.7c-15.21 0-29.3 7.6-37.68 20.3a102.84 102.84 0 00-17.02 56.76v5.12c0 2.87.24 5.75.73 8.57l3.4 19.65c.77 4.51.63 9.06-.43 13.5L156.38 409c-4.3 18.71-7 37.84-8.06 57.06A236.06 236.06 0 0120 256C20 125.87 125.87 20 256 20s236 105.87 236 236c0 64.73-25.68 125.1-72.32 170.01a10 10 0 1013.87 14.41 255.13 255.13 0 0057.36-82.5C504.9 325.7 512 291.4 512 256c0-68.38-26.63-132.67-74.98-181.02zM400.13 455.66a10 10 0 00-13.86-2.84l-.72.48a10 10 0 1011.01 16.7l.73-.49a10 10 0 002.83-13.85z"/><path d="M396.7 141.12c-22.21-27.14-52.88-46.23-88.67-55.2a10 10 0 10-4.87 19.4c64.8 16.25 108.35 70.3 108.35 134.5 0 86.1-53.46 151.03-124.34 151.03-17.63 0-37.62-10.36-47.48-20.12a10 10 0 00-16.72 4.62l-7.2 28.02a362.5 362.5 0 01-31.42 80.68l-2.4 4.47a10 10 0 006.18 14.37A256.55 256.55 0 00256 512c31.51 0 62.28-5.66 91.46-16.82a10 10 0 10-7.14-18.69A235.04 235.04 0 01256 492c-17 0-33.9-1.82-50.41-5.41a382.48 382.48 0 0029.55-78.25l3.39-13.16c13.26 8.63 31.04 15.67 48.64 15.67 40.4 0 77.41-18 104.19-50.72 25.89-31.63 40.15-74.35 40.15-120.3 0-36.76-12.04-70.9-34.8-98.7zM263.6 80.31h-1.7a10 10 0 000 20h1.61a10 10 0 00.09-20z"/></svg>