<svg xmlns="http://www.w3.org/2000/svg" viewBox="0 0 410.15 410.15"><path d="M403.63 74.18a162.41 162.41 0 01-28.28 9.54 88.18 88.18 0 0023.28-37.07 4.62 4.62 0 00-6.77-5.38 163.19 163.19 0 01-43.23 17.86 11.46 11.46 0 01-10.27-2.55 88.42 88.42 0 00-58.51-22.09 94.54 94.54 0 00-28.02 4.33 85.67 85.67 0 00-57.73 61.72 94.33 94.33 0 00-2.1 32.56 3.28 3.28 0 01-3.55 3.57C125.7 130.84 69.1 100.6 29.1 51.53a4.62 4.62 0 00-7.58.6A88.35 88.35 0 009.54 96.58 88.33 88.33 0 0035.9 159.6a79.24 79.24 0 01-20.17-7.8 4.62 4.62 0 00-6.87 3.98 88.54 88.54 0 0051.65 81.57 79.17 79.17 0 01-16.79-1.4 4.62 4.62 0 00-5.27 5.95 88.62 88.62 0 0070 60.28 163.17 163.17 0 01-91.39 27.75H6.83a6.77 6.77 0 00-6.62 5.1 7 7 0 003.36 7.74 242.7 242.7 0 00121.95 32.88c37.49 0 72.55-7.43 104.22-22.1A230.14 230.14 0 00306 296.4a250.52 250.52 0 0046.69-78.2c10.38-27.73 15.87-57.33 15.87-85.59v-1.34c0-4.54 2.05-8.8 5.63-11.71a174.78 174.78 0 0035.16-38.6c2.57-3.84-1.48-8.67-5.72-6.79z" fill="#fff"/></svg>